<?xml version="1.0" encoding="UTF-8" standalone="no"?>
<!-- Created with Inkscape (http://www.inkscape.org/) -->

<svg
   width="116.51272mm"
   height="24.934278mm"
   viewBox="0 0 116.51272 24.934278"
   version="1.1"
   id="svg1"
   inkscape:version="1.4.3 (0d15f75042, 2025-12-25)"
   sodipodi:docname="logotextdark.svg"
   xmlns:inkscape="http://www.inkscape.org/namespaces/inkscape"
   xmlns:sodipodi="http://sodipodi.sourceforge.net/DTD/sodipodi-0.dtd"
   xmlns="http://www.w3.org/2000/svg"
   xmlns:svg="http://www.w3.org/2000/svg">
  <sodipodi:namedview
     id="namedview1"
     pagecolor="#ffffff"
     bordercolor="#000000"
     borderopacity="0.25"
     inkscape:showpageshadow="2"
     inkscape:pageopacity="0.0"
     inkscape:pagecheckerboard="0"
     inkscape:deskcolor="#d1d1d1"
     inkscape:document-units="mm"
     inkscape:zoom="1.465213"
     inkscape:cx="350.461"
     inkscape:cy="84.970584"
     inkscape:window-width="1920"
     inkscape:window-height="1012"
     inkscape:window-x="0"
     inkscape:window-y="0"
     inkscape:window-maximized="1"
     inkscape:current-layer="text1" />
  <defs
     id="defs1" />
  <g
     inkscape:label="Layer 1"
     inkscape:groupmode="layer"
     id="layer1"
     transform="translate(-18.404013,-11.576676)">
    <g
       id="text1"
       style="font-size:11.2889px;font-family:'Liberation Sans';-inkscape-font-specification:'Liberation Sans';stroke-width:0.264583"
       aria-label="Pangolin:&#10;Plane Geometry Library">
      <path
         style="font-family:Cantarell;-inkscape-font-specification:Cantarell;fill:#ffffff"
         d="m 18.404013,19.919174 h 0.936979 V 17.18726 h 1.33209 c 1.74978,0 2.923826,-1.038579 2.923826,-2.607736 0,-1.501423 -1.106313,-2.494847 -2.754492,-2.494847 h -2.438403 z m 0.936979,-3.544715 v -3.476981 h 1.388535 c 1.140179,0 1.907824,0.745068 1.907824,1.85138 0,1.061156 -0.632178,1.625601 -1.794935,1.625601 z m 8.985967,3.544715 h 0.632178 v -3.533426 c 0,-1.298223 -0.767645,-2.020713 -2.190047,-2.020713 -0.7112,0 -1.478846,0.191912 -2.065868,0.51929 L 24.929,15.55037 c 0.564445,-0.248356 1.12889,-0.372534 1.659468,-0.372534 0.970845,0 1.467557,0.4064 1.467557,1.207912 v 0.361245 c -2.438403,0.02258 -3.499559,0.530579 -3.499559,1.693335 0,0.970846 0.722489,1.591735 1.840091,1.591735 0.688622,0 1.275645,-0.225778 1.715912,-0.620889 z m -0.270934,-1.219201 c -0.338667,0.338667 -0.835379,0.541867 -1.399824,0.541867 -0.722489,0 -1.196623,-0.361245 -1.196623,-0.903112 0,-0.677334 0.767645,-0.959556 2.596447,-0.970845 z m 6.400797,1.219201 h 0.903112 v -3.567292 c 0,-1.207913 -0.801512,-1.986847 -2.020713,-1.986847 -0.62089,0 -1.24178,0.214489 -1.761069,0.598312 l -0.2032,-0.485423 h -0.632179 v 5.44125 h 0.903112 v -4.255915 c 0.41769,-0.327378 0.914401,-0.508001 1.44498,-0.508001 0.880534,0 1.365957,0.496712 1.365957,1.377246 z m 4.65102,2.562581 c 1.569157,0 2.596447,-1.083735 2.596447,-2.720625 v -5.283206 h -0.632178 l -0.169334,0.462845 c -0.395111,-0.372534 -0.936979,-0.575734 -1.569157,-0.575734 -1.512713,0 -2.540003,1.140179 -2.540003,2.867381 0,1.682046 0.970846,2.799647 2.427114,2.799647 0.632178,0 1.174046,-0.214489 1.580446,-0.598312 v 0.462845 c 0,1.207913 -0.541867,1.806224 -1.625602,1.806224 -0.485422,0 -1.072445,-0.124177 -1.580446,-0.338667 l -0.191911,0.688623 c 0.564445,0.282223 1.140179,0.428979 1.704624,0.428979 z m 1.693335,-6.649163 v 2.788359 c -0.3048,0.395111 -0.767645,0.620889 -1.320801,0.620889 -1.083735,0 -1.783647,-0.846667 -1.783647,-2.099735 0,-1.196624 0.632179,-1.986847 1.682046,-1.986847 0.609601,0 1.095024,0.248356 1.422402,0.677334 z m 4.967112,4.199471 c 1.603024,0 2.686759,-1.162757 2.686759,-2.901247 0,-1.682046 -1.004712,-2.765781 -2.551292,-2.765781 -1.603024,0 -2.675469,1.151468 -2.675469,2.889959 0,1.682046 0.993423,2.777069 2.540002,2.777069 z m 0.124178,-0.790223 c -1.049867,0 -1.761068,-0.846667 -1.761068,-2.099735 0,-1.207913 0.643467,-1.986847 1.648179,-1.986847 1.049868,0 1.772358,0.857957 1.772358,2.099736 0,1.196623 -0.654757,1.986846 -1.659469,1.986846 z m 5.317067,0.745068 c 0.293511,0 0.643467,-0.06773 0.857956,-0.180623 l -0.2032,-0.632178 c -0.135467,0.05644 -0.259645,0.09031 -0.395112,0.09031 -0.383822,0 -0.587023,-0.259645 -0.587023,-0.677334 v -7.010407 h -0.903112 v 7.123296 c 0,0.778934 0.485423,1.286935 1.230491,1.286935 z m 1.907821,-0.06773 h 0.903112 v -5.44125 h -0.903112 z m 0.462845,-6.7169 c 0.4064,0 0.643467,-0.237066 0.643467,-0.643467 0,-0.4064 -0.237067,-0.643467 -0.643467,-0.643467 -0.406401,0 -0.643468,0.237067 -0.643468,0.643467 0,0.406401 0.237067,0.643467 0.643468,0.643467 z m 6.028276,6.716896 h 0.903112 v -3.567292 c 0,-1.207913 -0.801512,-1.986847 -2.020713,-1.986847 -0.62089,0 -1.241779,0.214489 -1.761069,0.598312 l -0.2032,-0.485423 h -0.632178 v 5.44125 h 0.903112 v -4.255915 c 0.417689,-0.327378 0.914401,-0.508001 1.444979,-0.508001 0.880534,0 1.365957,0.496712 1.365957,1.377246 z m 3.194755,0.112889 c 0.428978,0 0.722489,-0.3048 0.722489,-0.722489 0,-0.41769 -0.293511,-0.72249 -0.722489,-0.72249 -0.428978,0 -0.72249,0.3048 -0.72249,0.72249 0,0.417689 0.293512,0.722489 0.72249,0.722489 z m 0,-4.10916 c 0.428978,0 0.722489,-0.3048 0.722489,-0.722489 0,-0.417689 -0.293511,-0.72249 -0.722489,-0.72249 -0.428978,0 -0.72249,0.304801 -0.72249,0.72249 0,0.417689 0.293512,0.722489 0.72249,0.722489 z"
         id="path3" />
      <path
         style="font-family:Cantarell;-inkscape-font-specification:Cantarell;fill:#ffffff"
         d="m 18.404013,34.061252 h 0.936979 v -2.731914 h 1.33209 c 1.74978,0 2.923826,-1.038578 2.923826,-2.607736 0,-1.501423 -1.106313,-2.494846 -2.754492,-2.494846 h -2.438403 z m 0.936979,-3.544714 v -3.476982 h 1.388535 c 1.140179,0 1.907824,0.745068 1.907824,1.85138 0,1.061157 -0.632178,1.625602 -1.794935,1.625602 z m 6.852364,3.612448 c 0.293512,0 0.643468,-0.06773 0.857957,-0.180623 l -0.2032,-0.632178 c -0.135467,0.05644 -0.259645,0.09031 -0.395112,0.09031 -0.383823,0 -0.587023,-0.259645 -0.587023,-0.677334 v -7.010407 h -0.903112 v 7.123296 c 0,0.778934 0.485423,1.286935 1.23049,1.286935 z m 5.271915,-0.06773 h 0.632178 v -3.533425 c 0,-1.298224 -0.767645,-2.020714 -2.190046,-2.020714 -0.711201,0 -1.478846,0.191912 -2.065869,0.51929 l 0.225778,0.666045 c 0.564445,-0.248356 1.12889,-0.372534 1.659468,-0.372534 0.970846,0 1.467557,0.406401 1.467557,1.207913 v 0.361244 c -2.438402,0.02258 -3.499559,0.530579 -3.499559,1.693335 0,0.970846 0.72249,1.591735 1.840091,1.591735 0.688623,0 1.275646,-0.225778 1.715913,-0.620889 z m -0.270934,-1.219201 c -0.338667,0.338667 -0.835378,0.541867 -1.399823,0.541867 -0.72249,0 -1.196624,-0.361244 -1.196624,-0.903112 0,-0.677334 0.767645,-0.959556 2.596447,-0.970845 z m 6.400797,1.219201 h 0.903112 V 30.49396 c 0,-1.207912 -0.801512,-1.986847 -2.020713,-1.986847 -0.62089,0 -1.241779,0.214489 -1.761069,0.598312 l -0.2032,-0.485423 h -0.632178 v 5.44125 h 0.903112 v -4.255915 c 0.417689,-0.327378 0.914401,-0.508001 1.444979,-0.508001 0.880534,0 1.365957,0.496712 1.365957,1.377246 z m 5.136444,0.112889 c 0.620889,0 1.298223,-0.146755 1.783646,-0.4064 l -0.2032,-0.654756 c -0.417689,0.2032 -0.948268,0.327378 -1.422402,0.327378 -1.151467,0 -1.873957,-0.688623 -2.009424,-1.85138 h 3.793071 c 0.02258,-0.169333 0.04516,-0.564445 0.04516,-0.778934 0,-1.365957 -0.903112,-2.302936 -2.246491,-2.302936 -1.512712,0 -2.540002,1.185335 -2.540002,2.856092 0,1.738491 1.072445,2.810936 2.799647,2.810936 z m -1.862669,-3.262492 c 0.07902,-1.061156 0.62089,-1.63689 1.535291,-1.63689 0.92569,0 1.467557,0.598311 1.467557,1.63689 z m 11.458225,3.251203 c 1.083734,0 2.065868,-0.316089 2.856091,-0.936978 v -3.318937 h -3.160892 v 0.812801 h 2.223914 v 2.190047 c -0.553156,0.282222 -1.162757,0.428978 -1.783647,0.428978 -1.885246,0 -3.104447,-1.298224 -3.104447,-3.307648 0,-1.95298 1.117601,-3.08187 3.025425,-3.08187 0.711201,0 1.535291,0.158045 2.223914,0.417689 l 0.270933,-0.722489 c -0.688623,-0.338667 -1.512712,-0.51929 -2.370669,-0.51929 -2.472269,0 -4.10916,1.614313 -4.10916,4.075293 0,2.393247 1.557869,3.962404 3.928538,3.962404 z m 6.920099,0.01129 c 0.62089,0 1.298224,-0.146755 1.783647,-0.4064 L 60.827679,33.11299 c -0.417689,0.2032 -0.948267,0.327378 -1.422401,0.327378 -1.151468,0 -1.873957,-0.688623 -2.009424,-1.85138 h 3.79307 c 0.02258,-0.169333 0.04516,-0.564445 0.04516,-0.778934 0,-1.365957 -0.903112,-2.302936 -2.246491,-2.302936 -1.512713,0 -2.540003,1.185335 -2.540003,2.856092 0,1.738491 1.072446,2.810936 2.799647,2.810936 z m -1.862668,-3.262492 c 0.07902,-1.061156 0.620889,-1.63689 1.53529,-1.63689 0.92569,0 1.467557,0.598311 1.467557,1.63689 z m 7.563561,3.262492 c 1.603023,0 2.686758,-1.162756 2.686758,-2.901247 0,-1.682046 -1.004712,-2.765781 -2.551292,-2.765781 -1.603023,0 -2.675469,1.151468 -2.675469,2.889959 0,1.682046 0.993423,2.777069 2.540003,2.777069 z m 0.124178,-0.790223 c -1.049868,0 -1.761069,-0.846667 -1.761069,-2.099735 0,-1.207912 0.643467,-1.986847 1.64818,-1.986847 1.049867,0 1.772357,0.857957 1.772357,2.099736 0,1.196623 -0.654756,1.986846 -1.659468,1.986846 z m 11.401781,0.677334 h 0.903112 V 30.49396 c 0,-1.207912 -0.790223,-1.986847 -1.998135,-1.986847 -0.72249,0 -1.43369,0.293512 -1.986847,0.812801 -0.338667,-0.519289 -0.914401,-0.812801 -1.659468,-0.812801 -0.620889,0 -1.23049,0.214489 -1.738491,0.587023 l -0.2032,-0.474134 h -0.632178 v 5.44125 h 0.903112 v -4.255915 c 0.4064,-0.327378 0.891823,-0.508001 1.411112,-0.508001 0.869246,0 1.343379,0.496712 1.343379,1.377246 v 3.38667 h 0.903113 V 30.49396 c 0,-0.225778 -0.02258,-0.428978 -0.07902,-0.62089 0.41769,-0.372533 0.936979,-0.575734 1.490135,-0.575734 0.869245,0 1.343379,0.496712 1.343379,1.377246 z m 5.136445,0.112889 c 0.620889,0 1.298223,-0.146755 1.783646,-0.4064 l -0.2032,-0.654756 c -0.417689,0.2032 -0.948268,0.327378 -1.422401,0.327378 -1.151468,0 -1.873958,-0.688623 -2.009425,-1.85138 h 3.793071 c 0.02258,-0.169333 0.04515,-0.564445 0.04515,-0.778934 0,-1.365957 -0.903112,-2.302936 -2.246491,-2.302936 -1.512712,0 -2.540002,1.185335 -2.540002,2.856092 0,1.738491 1.072445,2.810936 2.799647,2.810936 z m -1.862669,-3.262492 c 0.07902,-1.061156 0.62089,-1.63689 1.535291,-1.63689 0.92569,0 1.467557,0.598311 1.467557,1.63689 z m 7.236183,3.206048 c 0.372534,0 0.745067,-0.09031 1.004712,-0.2032 l -0.2032,-0.654757 c -0.169334,0.07902 -0.417689,0.124178 -0.609601,0.124178 -0.564445,0 -0.936978,-0.361244 -0.936978,-0.903112 v -3.104447 h 1.490134 v -0.756357 h -1.490134 v -1.591735 h -0.903112 v 1.591735 h -0.733779 v 0.756357 h 0.733779 v 3.228625 c 0,0.903112 0.654756,1.512713 1.648179,1.512713 z m 2.212626,-0.05644 h 0.903112 v -3.883381 c 0.349956,-0.474134 0.903112,-0.756357 1.512713,-0.756357 0.214489,0 0.417689,0.03387 0.598311,0.1016 l 0.225778,-0.835378 c -0.237067,-0.07902 -0.474133,-0.124178 -0.722489,-0.124178 -0.654756,0 -1.264357,0.316089 -1.670758,0.846667 l -0.1016,-0.790223 H 89.19667 Z m 4.617173,2.449692 h 0.959556 l 0.903112,-2.449692 2.122314,-5.44125 h -0.903112 l -1.636891,4.560716 -1.603024,-4.560716 h -1.004712 l 2.144891,5.44125 z m 7.642567,-2.449692 h 4.44783 v -0.835378 h -3.51085 v -6.999118 h -0.93698 z m 5.61059,0 h 0.90311 v -5.44125 H 107.067 Z m 0.46285,-6.716895 c 0.4064,0 0.64346,-0.237067 0.64346,-0.643468 0,-0.4064 -0.23706,-0.643467 -0.64346,-0.643467 -0.4064,0 -0.64347,0.237067 -0.64347,0.643467 0,0.406401 0.23707,0.643468 0.64347,0.643468 z m 4.62845,6.829784 c 1.55787,0 2.59645,-1.162756 2.59645,-2.901247 0,-1.659468 -0.99342,-2.765781 -2.48356,-2.765781 -0.6096,0 -1.12889,0.180623 -1.524,0.530579 v -3.318937 h -0.90311 v 8.342497 h 0.63218 l 0.18062,-0.417689 c 0.38382,0.349956 0.89182,0.530578 1.50142,0.530578 z m -1.41111,-4.267204 c 0.3048,-0.395111 0.76764,-0.609601 1.30951,-0.609601 1.08374,0 1.79494,0.857957 1.79494,2.111025 0,1.185334 -0.64347,1.975557 -1.69334,1.975557 -0.59831,0 -1.08373,-0.248355 -1.41111,-0.688623 z m 5.53156,4.154315 h 0.90311 v -3.883381 c 0.34995,-0.474134 0.90311,-0.756357 1.51271,-0.756357 0.21449,0 0.41769,0.03387 0.59831,0.1016 l 0.22578,-0.835378 c -0.23707,-0.07902 -0.47413,-0.124178 -0.72249,-0.124178 -0.65475,0 -1.26436,0.316089 -1.67076,0.846667 l -0.1016,-0.790223 h -0.74506 z m 7.62001,0 h 0.63218 v -3.533425 c 0,-1.298224 -0.76765,-2.020714 -2.19005,-2.020714 -0.7112,0 -1.47884,0.191912 -2.06587,0.51929 l 0.22578,0.666045 c 0.56445,-0.248356 1.12889,-0.372534 1.65947,-0.372534 0.97084,0 1.46756,0.406401 1.46756,1.207913 v 0.361244 c -2.43841,0.02258 -3.49956,0.530579 -3.49956,1.693335 0,0.970846 0.72249,1.591735 1.84009,1.591735 0.68862,0 1.27564,-0.225778 1.71591,-0.620889 z m -0.27093,-1.219201 c -0.33867,0.338667 -0.83538,0.541867 -1.39983,0.541867 -0.72249,0 -1.19662,-0.361244 -1.19662,-0.903112 0,-0.677334 0.76764,-0.959556 2.59645,-0.970845 z m 2.68674,1.219201 h 0.90312 v -3.883381 c 0.34995,-0.474134 0.90311,-0.756357 1.51271,-0.756357 0.21449,0 0.41769,0.03387 0.59831,0.1016 l 0.22578,-0.835378 c -0.23707,-0.07902 -0.47413,-0.124178 -0.72249,-0.124178 -0.65476,0 -1.26436,0.316089 -1.67076,0.846667 l -0.1016,-0.790223 h -0.74507 z m 4.61718,2.449692 h 0.95955 l 0.90312,-2.449692 2.12231,-5.44125 h -0.90311 l -1.63689,4.560716 -1.60303,-4.560716 h -1.00471 l 2.14489,5.44125 z"
         id="path4" />
    </g>
    <text
       xml:space="preserve"
       style="font-style:normal;font-variant:normal;font-weight:normal;font-stretch:normal;font-size:11.2889px;font-family:Cantarell;-inkscape-font-specification:Cantarell;writing-mode:lr-tb;direction:ltr;fill:#000000;stroke-width:0.264583"
       x="19.663801"
       y="90.402405"
       id="text3"><tspan
         sodipodi:role="line"
         id="tspan3"
         style="stroke-width:0.264583"
         x="19.663801"
         y="90.402405" /></text>
  </g>
</svg>
